<svg width="16" height="16" viewBox="0 0 16 16" fill="none" xmlns="http://www.w3.org/2000/svg">
<path fill-rule="evenodd" clip-rule="evenodd" d="M7.2204 0.0194786C7.1602 0.0343377 6.86469 0.0873526 6.5637 0.137306C5.02935 0.392002 3.363 1.30535 2.24887 2.50237C-1.24763 6.25897 -0.581369 12.2245 3.65232 15.0693C4.79024 15.8339 5.79966 16.1598 5.97741 15.82C6.01893 15.7406 6.05293 15.3276 6.05293 14.9022V14.1289L5.23205 14.1318C4.5269 14.1343 4.37002 14.112 4.11931 13.9737C3.72091 13.7539 3.47931 13.4703 3.2394 12.9403C3.10426 12.6419 2.87996 12.3381 2.56745 12.0304C2.02734 11.4987 2.0261 11.3749 2.56154 11.4276C3.01648 11.4724 3.32287 11.6947 3.77016 12.305C4.32128 13.0568 4.87043 13.2646 5.72465 13.0446C5.99974 12.9736 6.0514 12.9291 6.09248 12.7272C6.11882 12.598 6.21966 12.3444 6.31656 12.1636C6.41353 11.9829 6.48416 11.8304 6.47358 11.8248C6.46293 11.8193 6.17603 11.7581 5.836 11.6889C4.02781 11.321 3.0777 10.1757 2.94074 8.19887C2.87391 7.23452 3.06493 6.487 3.54608 5.83022C3.71551 5.59889 3.71894 5.57067 3.63459 5.10219C3.56578 4.72011 3.56622 4.50708 3.63648 4.11664C3.76731 3.39033 3.81803 3.3188 4.16199 3.3751C4.57236 3.44223 5.1612 3.68102 5.63242 3.97141L6.04228 4.22394L6.50365 4.10723C7.12248 3.95065 8.90222 3.94662 9.56527 4.10029L10.0495 4.21251L10.5127 3.92586C10.9824 3.63525 11.7638 3.34538 12.0776 3.34538C12.2216 3.34538 12.2677 3.40818 12.3617 3.73232C12.4891 4.171 12.5103 5.03021 12.4011 5.32419C12.3404 5.48734 12.3584 5.56148 12.5076 5.76152C12.6063 5.89406 12.7778 6.20259 12.8886 6.44728C13.0616 6.82914 13.094 7.00857 13.117 7.71352C13.1903 9.95471 12.2176 11.2808 10.1996 11.6911C9.86531 11.7591 9.57833 11.8241 9.56184 11.8357C9.54542 11.8473 9.58519 11.9169 9.65027 11.9906C9.9668 12.3485 10.0215 12.6583 10.0517 14.269C10.0803 15.7867 10.0847 15.8241 10.2472 15.9331C10.3983 16.0343 10.4565 16.028 10.8831 15.8636C11.9304 15.4603 12.8451 14.8496 13.6863 13.992C14.7199 12.9383 15.4096 11.6911 15.8133 10.1458C15.9778 9.5158 16 9.28463 16 8.19887C16 7.10646 15.9783 6.88395 15.8092 6.23552C15.413 4.71683 14.7268 3.48136 13.6825 2.4062C12.5726 1.26346 11.2148 0.504528 9.66596 0.160976C9.1943 0.056365 7.47418 -0.0431687 7.2204 0.0194786Z" fill="#212D4F"/>
</svg>
